#!OML:ASF F:\VICON\USERDATA\INSTALL\rory3\rory3.ASF
:FULLY-SPECIFIED
:DEGREES
37
root 0.5366055683723233 17.78823256182574 14.348504469571047 2.4974238656905667 3.722147195015463 -1.0203819280504234
lfemur -11.661766042812523 -11.61615343893403 -23.79794992438987
ltibia -19.906598545114534
lfoot -16.33552567724245 1.9839772930877153
ltoes -13.758090574619525
rfemur -33.50237894463338 -6.12461086211858 20.588531308097025
rtibia 113.55122864302938
rfoot 32.10313433413106 -15.191507229066124
rtoes 41.665473682323665
lowerback nan 2.322046474944301 4.21307286422344
upperback -0.045093017207995745 2.626712065820339 -0.5704597148549164
thorax -8.340077648210553 1.1514116347480194 -0.720920955852179
lowerneck -21.461037708917356 -4.91859650582187 -2.1113515436541417
upperneck 9.775627484332997 -7.859708160541976 4.637246435441212
head 6.780046588229068 -2.747829523665601 1.1432052485755066
lclavicle -2.246316906662663e-14 -4.746324339610287e-15
lhumerus -56.05213776410647 -0.08420313107030797 80.18745432416391
lradius 115.41614414231458
lwrist 32.299787700486704
lhand -26.74134763517442 6.1697699572922
lfingers nan
lthumb 0.24840634376741777 36.27027625941348
rclavicle -2.1449149279265733e-14 -1.6676750448616948e-15
rhumerus -48.66481393550036 7.822855719095065 -93.12554812796307
rradius 111.73083201138031
rwrist -22.304905258519277
rhand -17.81329988730436 nan
rfingers nan
rthumb 8.395435923351414 7.664815553424782
38
root 0.5531327321008542 17.788102036925757 15.34009195731646 2.3127466900306937 3.6796550379979536 -0.7349839905259414
lfemur -10.306132327890975 -11.783758348407043 -24.147220038993645
ltibia -19.365762581514048
lfoot -15.656927444168598 2.1177704393458274
ltoes -8.493827703547279
rfemur -34.70636014940372 -6.698099589399229 19.955601870725992
rtibia 117.730301161645
rfoot 31.556123833048062 -15.578515683920262
rtoes 40.20428290442359
lowerback nan 2.241533518864509 4.014452789066951
upperback 0.041370137918638084 2.4750517614547882 -0.6208011974465104
thorax -8.28688302241694 1.064517771492559 -0.7633447384012078
lowerneck -21.090562050796464 -4.799068872042671 -2.1288777701191006
upperneck 8.950732097031239 -7.74396490320269 4.706747282313471
head 6.4982896313357505 -2.6644494554469205 1.1967912982444249
lclavicle -1.7261534304795948e-14 1.9805628145337724e-14
lhumerus -56.097270750560796 0.04428726910529868 80.30733302256202
lradius 115.34520447098103
lwrist 32.449721156448945
lhand -27.277534790142095 6.77975039116688
lfingers nan
lthumb -0.2658957723161819 36.87731915683088
rclavicle -1.5737847504017492e-14 2.3126859396719007e-14
rhumerus -49.4950259292828 7.714373141997107 -93.64548419966465
rradius 110.89301552211838
rwrist -21.024889350789262
rhand -18.802757779661054 nan
rfingers nan
rthumb 7.475681702749722 4.714482135241358
39
root 0.55772020757951 17.751536588061164 16.59569423743401 2.084078357711872 4.030450317639314 -0.31784811631369525
lfemur -9.107703085317912 -11.949635362808952 -24.644173170002645
ltibia -18.40870391469197
lfoot -15.113806709130323 0.6160244097513559
ltoes -5.2852519730922545
rfemur -35.59618411798742 -7.6314216248676665 19.23973796806477
rtibia 122.13551954030163
rfoot 31.324122441102638 -15.420489432933383
rtoes 37.307642756745665
lowerback nan 2.1007560828753364 3.7177810734907615
upperback 0.17161940662315922 2.2205415922270193 -0.6716566473287777
thorax -8.306583217234603 0.9909847363097473 -0.7317330968756912
lowerneck -20.82929398695767 -4.8054731752761715 -2.1705123065999157
upperneck 8.47113984018344 -7.667838514394831 4.866594076435804
head 6.3106874169680225 -2.6346934622145834 1.2478126066420334
lclavicle 4.9245878252560283e-14 2.5289587063379118e-14
lhumerus -55.57810210458769 -0.0002148607744807407 80.70884067811413
lradius 115.19610322398026
lwrist 32.519952688403244
lhand -28.090951078145984 6.689792259867298
lfingers nan
lthumb -1.0422094728107785 36.79523224355507
rclavicle 5.015196727266228e-14 2.8256134690945946e-14
rhumerus -50.13380403285985 7.702154381094891 -94.32753649239649
rradius 109.12217180325733
rwrist -16.4418827747984
rhand -22.545769975202816 nan
rfingers nan
rthumb 3.8586917574100337 3.474427074683633
40
root 0.5501740631779054 17.71017666245078 17.56469471454998 1.9086449162037629 4.39055244974024 0.15173843312574364
lfemur -8.17166191837369 -11.877185580654313 -25.243339681381425
ltibia -16.300620401680064
lfoot -15.184063924203802 -0.961743339267878
ltoes -2.987037300093002
rfemur -36.24980452604038 -8.405832790630079 18.717009628747263
rtibia 126.62213542863785
rfoot 31.373505322892427 -15.33683315533513
rtoes 35.66413919047405
lowerback nan 2.0351320195796685 3.291491223407281
upperback 0.3231358563414787 2.0553551255091356 -0.7585061517827576
thorax -8.321387079450473 0.9273389642333602 -0.6545914397099226
lowerneck -20.60781325085085 -4.845319525880658 -2.2281454372740046
upperneck 7.8666018699357805 -7.663896786629716 5.0702262443642345
head 6.131528686664421 -2.5971495921064593 1.324527177345065
lclavicle -2.4884986167527243e-14 -2.3182171695167905e-15
lhumerus -54.94863223854661 0.027705286515339544 80.92431984521308
lradius 115.02374031972575
lwrist 32.568242364393946
lhand -28.31468439304651 6.298017772792743
lfingers nan
lthumb -1.2387351212949744 36.40548334758297
rclavicle -2.3183859247988114e-14 1.2391506771146524e-15
rhumerus -50.353730100428805 6.854411376736742 -93.89584725815575
rradius 108.18312855641159
rwrist -20.261663998526004
rhand -19.798318150216517 nan
rfingers nan
rthumb 6.366048337018538 5.267925503493731
41
root 0.548161278844082 17.664674277916713 18.89622878396915 1.7593799529104217 4.688185793498119 0.5846108538961947
lfemur -7.188396146709216 -11.68539084434046 -25.865456215340227
ltibia -13.734874786436706
lfoot -15.77245159724714 -2.017667539441452
ltoes -1.680440845482119
rfemur -36.64512938364147 -8.963364476893284 18.40087975515419
rtibia 131.030684170195
rfoot 31.015583207063244 -15.731512536449328
rtoes 36.35353252708591
lowerback nan 1.9462953234650717 2.837543269278237
upperback 0.5472143706722606 1.9144178399163587 -0.8328715103949893
thorax -8.057210707973011 0.8519408989504813 -0.5454840664747194
lowerneck -20.597814589399135 -4.873905679085163 -2.262934874563232
upperneck 7.212656069934795 -7.637656142042878 5.270645248003595
head 5.965383993954378 -2.5714908479254865 1.3776854955820252
lclavicle -1.9755861275797028e-14 2.4523484430749333e-15
lhumerus -54.241109362411386 -0.01919804459523089 81.24294641294767
lradius 114.70777497052039
lwrist 32.558862741377965
lhand -28.690188554413737 6.124454626237239
lfingers nan
lthumb -1.5815000436299196 36.237532931725795
rclavicle -1.769716760838379e-14 5.860239799081021e-15
rhumerus -50.62179460925261 6.145065174514262 -93.5653615708871
rradius 106.92111936189431
rwrist -21.911078472650267
rhand -18.57701501550811 nan
rfingers nan
rthumb 7.392391959061993 6.524477231993748
